<svg width="537" height="94" viewBox="0 0 537 94" fill="none" xmlns="http://www.w3.org/2000/svg">
<path d="M23.208 0.583992V37.32C23.208 38.6853 23.5067 39.6667 24.104 40.264C24.7867 40.8613 26.2373 41.16 28.456 41.16H37.928V53.32H21.672C16.808 53.32 12.8827 52.808 9.896 51.784C6.99467 50.76 4.81867 48.968 3.368 46.408C2.00267 43.7627 1.10667 40.9467 0.68 37.96C0.338667 34.9733 0.168 30.9627 0.168 25.928C0.168 20.808 0.338667 16.9253 0.68 14.28C1.10667 11.6347 2.00267 9.16 3.368 6.856C4.81867 4.55199 6.99467 2.93066 9.896 1.992C12.8827 1.05333 16.808 0.583992 21.672 0.583992H23.208ZM43.048 41.16H44.584C48.2533 41.16 51.0693 41.2453 53.032 41.416C55.08 41.5013 57.0427 41.8853 58.92 42.568C60.7973 43.1653 62.0773 43.8907 62.76 44.744C63.528 45.5973 64.2107 47.0907 64.808 49.224C65.4907 51.272 65.8747 53.4907 65.96 55.88C66.0453 58.2693 66.088 61.6827 66.088 66.12C66.088 70.5573 66.0453 74.0987 65.96 76.744C65.8747 79.304 65.4907 81.7787 64.808 84.168C64.2107 86.472 63.528 88.0933 62.76 89.032C62.0773 89.9707 60.7973 90.824 58.92 91.592C57.0427 92.2747 55.08 92.7013 53.032 92.872C51.0693 92.9573 48.2533 93 44.584 93H43.048V41.16ZM1.96 64.456H18.088C19.2827 64.456 20.008 64.6267 20.264 64.968C20.52 65.3093 20.648 66.0347 20.648 67.144V77.128C20.648 78.4933 20.8187 79.4747 21.16 80.072C21.5867 80.584 22.568 80.84 24.104 80.84H37.928V93H19.112C12.8827 93 8.14667 91.9333 4.904 89.8C1.74667 87.6667 0.168 83.9547 0.168 78.664V67.144C0.168 65.352 0.765333 64.456 1.96 64.456ZM28.328 0.455994H44.584C50.8133 0.455994 55.5067 1.52266 58.664 3.656C61.9067 5.78933 63.528 9.50133 63.528 14.792V26.312C63.528 28.104 62.9307 29 61.736 29H45.608C44.4133 29 43.688 28.8293 43.432 28.488C43.176 28.1467 43.048 27.4213 43.048 26.312V16.328C43.048 14.9627 42.8347 14.024 42.408 13.512C42.0667 12.9147 41.128 12.616 39.592 12.616H28.328V0.455994ZM102.443 93H89.003C86.1017 93 84.1817 92.5307 83.243 91.592C82.3897 90.6533 81.963 88.6907 81.963 85.704V7.752C81.963 4.76533 82.3897 2.80266 83.243 1.864C84.1817 0.925329 86.1017 0.455994 89.003 0.455994H102.443V93ZM160.905 65.096H178.825C179.764 65.096 180.233 65.6933 180.233 66.888V89.416C180.233 91.8053 179.038 93 176.649 93H145.673V80.84H157.577C158.942 80.84 159.625 80.712 159.625 80.456C159.71 80.1147 159.753 79.7307 159.753 79.304V66.504C159.753 65.8213 159.838 65.4373 160.009 65.352C160.18 65.1813 160.478 65.096 160.905 65.096ZM141.193 93H127.753C124.852 93 122.932 92.5307 121.993 91.592C121.14 90.6533 120.713 88.6907 120.713 85.704V7.752C120.713 4.76533 121.14 2.80266 121.993 1.864C122.932 0.925329 124.852 0.455994 127.753 0.455994H141.193V93ZM214.229 0.455994V77.128C214.229 78.408 214.528 79.3467 215.125 79.944C215.808 80.5413 217.258 80.84 219.477 80.84H228.949V93H212.693C209.28 93 206.421 92.744 204.117 92.232C201.898 91.72 199.936 90.696 198.229 89.16C196.608 87.5387 195.328 85.7467 194.389 83.784C193.536 81.8213 192.853 78.8773 192.341 74.952C191.573 69.064 191.189 61.1707 191.189 51.272C191.189 41.288 191.232 34.248 191.317 30.152C191.488 26.056 191.829 22.088 192.341 18.248C192.853 14.3227 193.536 11.4213 194.389 9.544C195.328 7.58133 196.608 5.832 198.229 4.296C199.936 2.67466 201.898 1.65067 204.117 1.224C206.421 0.711995 209.28 0.455994 212.693 0.455994H214.229ZM219.349 0.583992H235.605C239.018 0.583992 241.834 0.839994 244.053 1.352C246.357 1.864 248.32 2.93066 249.941 4.55199C251.648 6.08799 252.928 7.83733 253.781 9.8C254.72 11.7627 255.445 14.7067 255.957 18.632C256.725 24.52 257.109 32.456 257.109 42.44C257.109 52.3387 257.024 59.336 256.853 63.432C256.768 67.528 256.469 71.5387 255.957 75.464C255.445 79.304 254.72 82.2053 253.781 84.168C252.928 86.0453 251.648 87.7947 249.941 89.416C248.32 90.952 246.357 91.976 244.053 92.488C241.834 92.9147 239.018 93.128 235.605 93.128H234.069V16.456C234.069 15.176 233.728 14.2373 233.045 13.64C232.448 13.0427 231.04 12.744 228.821 12.744H219.349V0.583992ZM296.229 0.455994V77.128C296.229 78.408 296.528 79.3467 297.125 79.944C297.808 80.5413 299.258 80.84 301.477 80.84H310.949V93H294.693C291.28 93 288.421 92.744 286.117 92.232C283.898 91.72 281.936 90.696 280.229 89.16C278.608 87.5387 277.328 85.7467 276.389 83.784C275.536 81.8213 274.853 78.8773 274.341 74.952C273.573 69.064 273.189 61.1707 273.189 51.272C273.189 41.288 273.232 34.248 273.317 30.152C273.488 26.056 273.829 22.088 274.341 18.248C274.853 14.3227 275.536 11.4213 276.389 9.544C277.328 7.58133 278.608 5.832 280.229 4.296C281.936 2.67466 283.898 1.65067 286.117 1.224C288.421 0.711995 291.28 0.455994 294.693 0.455994H296.229ZM301.349 42.568H323.877C332.24 42.568 336.421 46.408 336.421 54.088V80.712C336.421 86.0027 335.994 89.3733 335.141 90.824C334.373 92.2747 332.069 93 328.229 93H316.069V58.44C316.069 57.0747 315.856 56.136 315.429 55.624C315.088 55.0267 314.149 54.728 312.613 54.728H301.349V42.568ZM301.349 0.455994H317.605C323.834 0.455994 328.528 1.52266 331.685 3.656C334.928 5.78933 336.549 9.50133 336.549 14.792V26.312C336.549 28.104 335.952 29 334.757 29H318.629C317.434 29 316.709 28.8293 316.453 28.488C316.197 28.1467 316.069 27.4213 316.069 26.312V16.328C316.069 14.9627 315.856 14.024 315.429 13.512C315.088 12.9147 314.149 12.616 312.613 12.616H301.349V0.455994ZM420.407 0.455994H439.607C445.836 0.455994 450.53 1.52266 453.687 3.656C456.93 5.78933 458.551 9.50133 458.551 14.792V85.704C458.551 88.6907 458.082 90.6533 457.143 91.592C456.29 92.5307 454.412 93 451.511 93H438.071V16.328C438.071 14.9627 437.858 14.024 437.431 13.512C437.09 12.9147 436.151 12.616 434.615 12.616H420.407V0.455994ZM373.943 93H360.503C357.602 93 355.682 92.5307 354.743 91.592C353.89 90.6533 353.463 88.6907 353.463 85.704V5.576C353.463 4.04 353.89 2.80266 354.743 1.864C355.596 0.925329 356.706 0.455994 358.071 0.455994H373.943V93ZM379.191 0.455994H411.959C413.324 0.455994 414.434 0.925329 415.287 1.864C416.14 2.80266 416.567 4.04 416.567 5.576V83.656H403.255C400.695 83.656 398.86 82.9733 397.751 81.608C396.642 80.1573 396.087 77.8533 396.087 74.696V16.328C396.087 14.9627 395.874 14.024 395.447 13.512C395.106 12.9147 394.167 12.616 392.631 12.616H379.191V0.455994ZM511.02 12.616H499.116C497.751 12.616 497.068 12.9573 497.068 13.64V93H483.628C480.727 93 478.807 92.5307 477.868 91.592C477.015 90.6533 476.588 88.6907 476.588 85.704V7.752C476.588 4.76533 477.015 2.80266 477.868 1.864C478.807 0.925329 480.727 0.455994 483.628 0.455994H511.02V12.616ZM516.14 0.455994H529.58C532.481 0.455994 534.359 0.925329 535.212 1.864C536.151 2.80266 536.62 4.76533 536.62 7.752V85.576C536.62 88.5627 536.151 90.568 535.212 91.592C534.273 92.5307 532.396 93 529.58 93H516.14V50.12H502.188V37.96H516.14V0.455994Z" fill="black"/>
</svg>
