<svg width="451" height="122" viewBox="0 0 451 122" fill="none" xmlns="http://www.w3.org/2000/svg">
<path d="M23.208 0.583992V37.32C23.208 38.6853 23.5067 39.6667 24.104 40.264C24.7867 40.8613 26.2373 41.16 28.456 41.16H37.928V53.32H21.672C16.808 53.32 12.8827 52.808 9.896 51.784C6.99467 50.76 4.81867 48.968 3.368 46.408C2.00267 43.7627 1.10667 40.9467 0.68 37.96C0.338667 34.9733 0.168 30.9627 0.168 25.928C0.168 20.808 0.338667 16.9253 0.68 14.28C1.10667 11.6347 2.00267 9.16 3.368 6.856C4.81867 4.55199 6.99467 2.93066 9.896 1.992C12.8827 1.05333 16.808 0.583992 21.672 0.583992H23.208ZM43.048 41.16H44.584C48.2533 41.16 51.0693 41.2453 53.032 41.416C55.08 41.5013 57.0427 41.8853 58.92 42.568C60.7973 43.1653 62.0773 43.8907 62.76 44.744C63.528 45.5973 64.2107 47.0907 64.808 49.224C65.4907 51.272 65.8747 53.4907 65.96 55.88C66.0453 58.2693 66.088 61.6827 66.088 66.12C66.088 70.5573 66.0453 74.0987 65.96 76.744C65.8747 79.304 65.4907 81.7787 64.808 84.168C64.2107 86.472 63.528 88.0933 62.76 89.032C62.0773 89.9707 60.7973 90.824 58.92 91.592C57.0427 92.2747 55.08 92.7013 53.032 92.872C51.0693 92.9573 48.2533 93 44.584 93H43.048V41.16ZM1.96 64.456H18.088C19.2827 64.456 20.008 64.6267 20.264 64.968C20.52 65.3093 20.648 66.0347 20.648 67.144V77.128C20.648 78.4933 20.8187 79.4747 21.16 80.072C21.5867 80.584 22.568 80.84 24.104 80.84H37.928V93H19.112C12.8827 93 8.14667 91.9333 4.904 89.8C1.74667 87.6667 0.168 83.9547 0.168 78.664V67.144C0.168 65.352 0.765333 64.456 1.96 64.456ZM28.328 0.455994H44.584C50.8133 0.455994 55.5067 1.52266 58.664 3.656C61.9067 5.78933 63.528 9.50133 63.528 14.792V26.312C63.528 28.104 62.9307 29 61.736 29H45.608C44.4133 29 43.688 28.8293 43.432 28.488C43.176 28.1467 43.048 27.4213 43.048 26.312V16.328C43.048 14.9627 42.8347 14.024 42.408 13.512C42.0667 12.9147 41.128 12.616 39.592 12.616H28.328V0.455994ZM80.299 29.128H88.107C91.8617 29.128 94.6777 30.0667 96.555 31.944C98.5177 33.736 99.499 36.0827 99.499 38.984V93H84.907C83.5417 93 82.4323 92.5307 81.579 91.592C80.7257 90.6533 80.299 89.416 80.299 87.88V29.128ZM81.195 1.864C82.1337 0.925329 84.8643 0.455994 89.387 0.455994C93.9097 0.455994 96.6403 0.925329 97.579 1.864C98.5177 2.71733 98.987 5.27733 98.987 9.544C98.987 13.8107 98.475 16.4133 97.451 17.352C96.5123 18.2907 93.8243 18.76 89.387 18.76C84.9497 18.76 82.219 18.2907 81.195 17.352C80.2563 16.4133 79.787 13.8107 79.787 9.544C79.787 5.27733 80.2563 2.71733 81.195 1.864ZM141.438 92.104C141.438 92.7013 141.225 93 140.798 93H127.87C123.091 93 119.55 91.8907 117.246 89.672C115.027 87.4533 113.918 83.8267 113.918 78.792V0.583992H121.726C125.481 0.583992 128.297 1.52266 130.174 3.39999C132.137 5.192 133.118 7.53866 133.118 10.44V78.536C133.118 81.1813 133.673 82.6747 134.782 83.016C135.379 83.272 136.19 83.4 137.214 83.4H140.414C141.097 83.4 141.438 83.6987 141.438 84.296V92.104ZM173.083 29H185.499C188.742 29 191.387 29.1707 193.435 29.512C195.483 29.768 197.275 30.408 198.811 31.432C200.347 32.456 201.499 33.608 202.267 34.888C203.035 36.0827 203.632 38.0453 204.059 40.776C204.742 44.616 205.083 49.992 205.083 56.904C205.083 63.816 205.04 68.5093 204.955 70.984C204.87 73.3733 204.699 75.9333 204.443 78.664C204.272 81.3947 203.888 83.4 203.291 84.68C202.779 85.96 202.054 87.2827 201.115 88.648C200.262 89.928 199.11 90.824 197.659 91.336C194.502 92.4453 190.448 93 185.499 93H185.243V44.744C185.243 44.5733 185.243 44.0613 185.243 43.208C185.243 42.3547 185.2 41.6293 185.115 41.032C184.688 39.4107 182.982 38.6 179.995 38.6H173.083V29ZM169.243 29V77.256C169.243 77.4267 169.243 77.9387 169.243 78.792C169.243 79.6453 169.328 80.3707 169.499 80.968C169.84 82.5893 171.504 83.4 174.491 83.4H181.403V93H168.987C165.744 93 163.099 92.872 161.051 92.616C159.003 92.2747 157.211 91.592 155.675 90.568C154.139 89.544 152.987 88.4347 152.219 87.24C151.451 85.96 150.811 83.9547 150.299 81.224C149.702 77.384 149.403 72.008 149.403 65.096C149.403 58.184 149.446 53.5333 149.531 51.144C149.616 48.6693 149.744 46.0667 149.915 43.336C150.171 40.6053 150.555 38.6 151.067 37.32C151.664 36.04 152.39 34.76 153.243 33.48C154.182 32.1147 155.376 31.176 156.827 30.664C159.984 29.5547 164.038 29 168.987 29H169.243ZM250.153 38.6H243.241C241.022 38.6 239.572 38.8987 238.889 39.496C238.292 40.0933 237.993 41.0747 237.993 42.44V79.688C237.993 80.968 238.292 81.9067 238.889 82.504C239.572 83.1013 241.022 83.4 243.241 83.4H250.153V93H237.737C234.494 93 231.849 92.872 229.801 92.616C227.753 92.2747 225.961 91.592 224.425 90.568C222.889 89.544 221.737 88.4347 220.969 87.24C220.201 85.96 219.561 83.9547 219.049 81.224C218.452 77.384 218.153 72.008 218.153 65.096C218.153 58.184 218.196 53.5333 218.281 51.144C218.366 48.6693 218.494 46.0667 218.665 43.336C218.921 40.6053 219.305 38.6 219.817 37.32C220.414 36.04 221.14 34.76 221.993 33.48C222.932 32.1147 224.126 31.176 225.577 30.664C228.734 29.5547 232.788 29 237.737 29H250.153V38.6ZM239.273 101.192V107.976C239.273 109.427 239.486 110.408 239.913 110.92C240.34 111.517 241.449 111.816 243.241 111.816H250.153V121.416H234.025C224.724 121.416 220.073 116.851 220.073 107.72V103.88C220.073 102.6 220.201 101.875 220.457 101.704C220.798 101.533 221.012 101.405 221.097 101.32C221.182 101.32 221.396 101.277 221.737 101.192C222.164 101.192 222.462 101.192 222.633 101.192C228.18 101.192 233.726 101.192 239.273 101.192ZM253.993 29H261.801C265.556 29 268.372 29.9387 270.249 31.816C272.212 33.608 273.193 35.9547 273.193 38.856V111.688C273.193 114.589 272.212 116.936 270.249 118.728C268.372 120.605 265.556 121.544 261.801 121.544H253.993V29ZM345.012 29H362.42C371.721 29 376.372 33.5653 376.372 42.696V93H361.78C360.415 93 359.305 92.5307 358.452 91.592C357.599 90.6533 357.172 89.416 357.172 87.88V42.44C357.172 41.0747 356.831 40.0933 356.148 39.496C355.551 38.8987 354.143 38.6 351.924 38.6H345.012V29ZM287.924 29H295.732C299.487 29 302.303 29.9387 304.18 31.816C306.143 33.608 307.124 35.9547 307.124 38.856V93H292.532C291.167 93 290.057 92.5307 289.204 91.592C288.351 90.6533 287.924 89.416 287.924 87.88V29ZM310.324 29H327.732C337.033 29 341.684 33.5653 341.684 42.696V93H327.092C325.727 93 324.617 92.5307 323.764 91.592C322.911 90.6533 322.484 89.416 322.484 87.88V42.44C322.484 41.0747 322.143 40.0933 321.46 39.496C320.863 38.8987 319.455 38.6 317.236 38.6H310.324V29ZM422.028 38.6H415.116C412.471 38.6 410.977 39.0693 410.636 40.008C410.124 41.1173 409.868 42.696 409.868 44.744V77.256C409.868 77.4267 409.868 77.9387 409.868 78.792C409.868 79.6453 409.953 80.3707 410.124 80.968C410.465 82.5893 412.129 83.4 415.116 83.4H422.028V93H409.612C406.369 93 403.724 92.872 401.676 92.616C399.628 92.2747 397.836 91.592 396.3 90.568C394.764 89.544 393.612 88.4347 392.844 87.24C392.076 85.96 391.436 83.9547 390.924 81.224C390.327 77.384 390.028 72.008 390.028 65.096C390.028 58.184 390.071 53.5333 390.156 51.144C390.241 48.6693 390.369 46.0667 390.54 43.336C390.796 40.6053 391.18 38.6 391.692 37.32C392.289 36.04 393.015 34.76 393.868 33.48C394.807 32.1147 396.001 31.176 397.452 30.664C400.609 29.5547 404.663 29 409.612 29H422.028V38.6ZM450.828 92.104C450.828 92.7013 450.657 93 450.316 93H439.82C435.041 93 431.5 91.8907 429.196 89.672C426.977 87.4533 425.868 83.8267 425.868 78.792V29H431.116C436.492 29 440.161 30.28 442.124 32.84C444.087 35.3147 445.068 38.6 445.068 42.696V78.536C445.068 81.1813 445.623 82.6747 446.732 83.016C447.329 83.272 448.14 83.4 449.164 83.4H449.804C450.487 83.4 450.828 83.6987 450.828 84.296V92.104Z" fill="white"/>
</svg>
